<svg width="42" height="44" viewBox="0 0 42 44" xmlns="http://www.w3.org/2000/svg">
<path d="M37.2681 5.57018C36.5101 2.76218 30.8686 0 21 0C11.1314 0 5.48923 2.76218 4.73192 5.57018C4.67693 5.6664 4.63635 5.77178 4.63635 5.89091V6.21818V13.7455V14.0727V14.4V21.6V21.9273V22.2545V30.1091C4.63635 30.2151 4.6645 30.3153 4.71293 30.4043C5.48595 33.6083 12.4019 36 21 36C29.5785 36 36.4833 33.6181 37.2818 30.4259C37.3342 30.3323 37.3636 30.2243 37.3636 30.1091V22.2545V21.9273V21.6V14.4V14.0727V13.7455V6.21818V5.89091C37.3636 5.77178 37.323 5.6664 37.2681 5.57018ZM36.0028 22.2447C35.9845 22.3239 35.959 22.4025 35.9269 22.4823C35.9007 22.5471 35.8686 22.6119 35.8333 22.6767C35.7894 22.7572 35.7404 22.8377 35.6821 22.9183C35.6389 22.9791 35.5898 23.0393 35.5388 23.0996C35.4661 23.1853 35.3889 23.2711 35.3012 23.3561C35.2481 23.4079 35.1899 23.4589 35.131 23.5106C35.0236 23.6042 34.9117 23.6972 34.7867 23.7895C34.733 23.8294 34.6754 23.868 34.6185 23.9073C34.4705 24.0094 34.3161 24.1108 34.1465 24.2103C34.102 24.2372 34.0542 24.2627 34.0078 24.2889C33.8127 24.3988 33.6092 24.5081 33.3892 24.6142C33.3611 24.6279 33.3316 24.641 33.3028 24.6541C33.0574 24.77 32.8008 24.8839 32.5265 24.9938C32.5187 24.9971 32.5108 24.9997 32.503 25.003C31.0165 25.5967 29.115 26.0961 26.8994 26.4233C26.8883 26.4247 26.8772 26.426 26.866 26.4279C26.4353 26.4914 25.9935 26.5477 25.5399 26.5975C25.466 26.6053 25.3881 26.6105 25.3134 26.6184C24.9174 26.6596 24.5169 26.6976 24.1045 26.7277C23.916 26.7415 23.7183 26.748 23.5265 26.7598C23.2163 26.7781 22.9093 26.7984 22.5912 26.8095C22.0715 26.8259 21.5413 26.8364 21 26.8364C20.4587 26.8364 19.9285 26.8259 19.4081 26.8076C19.09 26.7964 18.783 26.7755 18.4728 26.7578C18.281 26.7467 18.0833 26.7395 17.8948 26.7257C17.4825 26.6956 17.0819 26.6577 16.6859 26.6164C16.6113 26.6086 16.5334 26.6033 16.4594 26.5955C16.0058 26.5457 15.564 26.4888 15.1333 26.426C15.1222 26.4247 15.111 26.4233 15.0999 26.4214C12.8843 26.0941 10.9828 25.5947 9.49635 25.001C9.4885 24.9984 9.48064 24.9951 9.47279 24.9919C9.19853 24.8819 8.9413 24.768 8.6965 24.6521C8.66835 24.6384 8.63824 24.6253 8.6101 24.6122C8.39017 24.5062 8.18661 24.3975 7.99155 24.2869C7.94573 24.2607 7.8973 24.2352 7.85279 24.2084C7.68326 24.1089 7.52879 24.0074 7.38086 23.9053C7.32457 23.866 7.26632 23.8274 7.21264 23.7875C7.08763 23.6952 6.9757 23.6023 6.86835 23.5087C6.8101 23.4576 6.75119 23.4065 6.69817 23.3542C6.61046 23.2691 6.53323 23.184 6.46057 23.0976C6.40952 23.0374 6.36043 22.9772 6.31723 22.9163C6.25963 22.8358 6.21053 22.7553 6.16603 22.6748C6.13068 22.61 6.09926 22.5452 6.07243 22.4804C6.04035 22.4012 6.01483 22.322 5.9965 22.2428C5.97228 22.1387 5.94544 22.0327 5.94544 21.9273C5.94544 21.8533 5.95395 21.7793 5.96573 21.706C5.9821 21.6072 5.97293 21.5084 5.94544 21.4148V16.5554C5.96377 16.5724 5.98668 16.5888 6.00566 16.6058C6.14835 16.7315 6.29366 16.8565 6.4573 16.9769C8.92297 18.8417 13.8537 20.2909 21 20.2909C28.1162 20.2909 33.0345 18.8535 35.5106 16.9999C35.7083 16.8559 35.8863 16.7073 36.0539 16.5561L36.0545 16.5554V21.4148C36.027 21.5084 36.0179 21.6072 36.0342 21.706C36.0467 21.7793 36.0545 21.8533 36.0545 21.9273C36.0545 22.0327 36.0277 22.1387 36.0028 22.2447ZM36.0545 8.70087V13.5602C36.027 13.6538 36.0179 13.7527 36.0342 13.8515C36.0467 13.9248 36.0545 13.9988 36.0545 14.0727C36.0545 14.1781 36.0277 14.2841 36.0028 14.3902C35.9845 14.4694 35.959 14.5479 35.9269 14.6278C35.9007 14.6926 35.8686 14.7574 35.8333 14.8222C35.7894 14.9027 35.7404 14.9832 35.6821 15.0637C35.6389 15.1246 35.5898 15.1848 35.5388 15.245C35.4661 15.3308 35.3889 15.4165 35.3012 15.5016C35.2481 15.5533 35.1899 15.6044 35.131 15.6561C35.0236 15.7497 34.9117 15.8426 34.7867 15.9349C34.733 15.9748 34.6754 16.0135 34.6185 16.0527C34.4705 16.1548 34.3161 16.2563 34.1465 16.3558C34.102 16.3826 34.0542 16.4081 34.0078 16.4343C33.8127 16.5443 33.6092 16.6536 33.3892 16.7596C33.3611 16.7734 33.3316 16.7865 33.3028 16.7996C33.0574 16.9154 32.8008 17.0293 32.5265 17.1393C32.5187 17.1425 32.5108 17.1452 32.503 17.1484C31.0165 17.7421 29.115 18.2415 26.8994 18.5688C26.8883 18.5701 26.8772 18.5714 26.866 18.5734C26.4353 18.6369 25.9935 18.6932 25.5399 18.7429C25.466 18.7508 25.3881 18.756 25.3134 18.7639C24.9174 18.8051 24.5169 18.8431 24.1045 18.8732C23.916 18.8869 23.7183 18.8935 23.5265 18.9052C23.2163 18.9236 22.9093 18.9439 22.5912 18.955C22.0715 18.9713 21.5413 18.9818 21 18.9818C20.4587 18.9818 19.9285 18.9713 19.4081 18.953C19.09 18.9419 18.783 18.9209 18.4728 18.9033C18.281 18.8921 18.0833 18.8849 17.8948 18.8712C17.4825 18.8411 17.0819 18.8031 16.6859 18.7619C16.6113 18.754 16.5334 18.7488 16.4594 18.7409C16.0058 18.6912 15.564 18.6343 15.1333 18.5714C15.1222 18.5701 15.111 18.5688 15.0999 18.5668C12.8843 18.2396 10.9828 17.7401 9.49635 17.1465C9.4885 17.1439 9.48064 17.1406 9.47279 17.1373C9.19853 17.0273 8.9413 16.9135 8.6965 16.7976C8.66835 16.7839 8.63824 16.7708 8.6101 16.7577C8.39017 16.6516 8.18661 16.543 7.99155 16.4324C7.94573 16.4062 7.8973 16.3807 7.85279 16.3538C7.68326 16.2543 7.52879 16.1529 7.38086 16.0508C7.32457 16.0115 7.26632 15.9729 7.21264 15.9329C7.08763 15.8407 6.9757 15.7477 6.86835 15.6541C6.8101 15.6031 6.75119 15.552 6.69817 15.4996C6.61046 15.4145 6.53323 15.3295 6.46057 15.2431C6.40952 15.1828 6.36043 15.1226 6.31723 15.0617C6.25963 14.9812 6.21053 14.9007 6.16603 14.8202C6.13068 14.7554 6.09926 14.6906 6.07243 14.6258C6.04035 14.5466 6.01483 14.4674 5.9965 14.3882C5.97228 14.2841 5.94544 14.1781 5.94544 14.0727C5.94544 13.9988 5.95395 13.9248 5.96573 13.8515C5.9821 13.7527 5.97293 13.6538 5.94544 13.5602V8.70087C6.02399 8.77222 6.11366 8.84225 6.19875 8.91294C6.24588 8.95222 6.28973 8.99149 6.33948 9.03076C6.53584 9.18524 6.74792 9.33774 6.97766 9.48633C7.02544 9.51709 7.07912 9.5472 7.12886 9.57796C7.3213 9.69775 7.52486 9.81491 7.7389 9.93011C7.8181 9.97265 7.8973 10.0145 7.97912 10.0564C8.21802 10.1782 8.46872 10.2967 8.7325 10.4112C8.7757 10.4302 8.81497 10.4498 8.85883 10.4681C9.16581 10.5984 9.49177 10.7228 9.83082 10.8432C9.92443 10.8766 10.0226 10.908 10.1188 10.9407C10.3885 11.0317 10.6673 11.1188 10.956 11.2032C11.0601 11.2333 11.1622 11.2647 11.2689 11.2935C11.6518 11.3996 12.0471 11.5004 12.4621 11.5933C12.519 11.6064 12.5806 11.6169 12.6382 11.6293C13.0041 11.7092 13.3837 11.7831 13.7738 11.8525C13.906 11.8761 14.0402 11.8983 14.175 11.9206C14.5462 11.9815 14.9284 12.0371 15.3205 12.0881C15.4213 12.1012 15.5175 12.1163 15.6196 12.1287C16.1066 12.1876 16.6106 12.238 17.1284 12.2812C17.256 12.2917 17.3889 12.2996 17.5185 12.3087C17.9328 12.3388 18.3563 12.3637 18.7896 12.3833C18.9473 12.3905 19.1044 12.3977 19.2654 12.4036C19.8297 12.4226 20.4044 12.4364 21 12.4364C21.5956 12.4364 22.1703 12.4226 22.7345 12.4036C22.8949 12.3977 23.052 12.3905 23.2104 12.3833C23.6437 12.3637 24.0672 12.3388 24.4815 12.3087C24.6111 12.2989 24.7433 12.2917 24.8716 12.2812C25.3894 12.2387 25.8934 12.1876 26.3804 12.1287C26.4825 12.1163 26.5787 12.1012 26.6795 12.0881C27.0716 12.0371 27.4531 11.9815 27.8249 11.9206C27.9598 11.8983 28.094 11.8761 28.2262 11.8525C28.6163 11.7831 28.9959 11.7092 29.3618 11.6293C29.4194 11.6169 29.4809 11.6057 29.5379 11.5933C29.9529 11.5004 30.3482 11.3989 30.7311 11.2935C30.8378 11.2641 30.9399 11.2333 31.044 11.2032C31.3326 11.1188 31.6115 11.0317 31.8812 10.9407C31.9774 10.908 32.0756 10.8766 32.1692 10.8432C32.5082 10.7228 32.8348 10.5984 33.1412 10.4681C33.185 10.4498 33.2243 10.4302 33.2675 10.4112C33.5313 10.296 33.782 10.1782 34.0209 10.0564C34.1027 10.0145 34.1825 9.97265 34.2611 9.93011C34.4751 9.81556 34.6787 9.6984 34.8711 9.57796C34.9209 9.5472 34.9745 9.51709 35.0223 9.48633C35.2521 9.33774 35.4641 9.18589 35.6605 9.03076C35.7096 8.99149 35.7534 8.95222 35.8012 8.91294C35.8863 8.84225 35.976 8.77222 36.0545 8.70087ZM21 1.30909C29.8724 1.30909 36.0545 3.89585 36.0545 6.21818C36.0545 8.54051 29.8724 11.1273 21 11.1273C12.1276 11.1273 5.94544 8.54051 5.94544 6.21818C5.94544 3.89585 12.1276 1.30909 21 1.30909ZM36.0545 29.9147C36.0454 29.9435 36.0388 29.9729 36.0336 30.0031C35.6625 32.2671 29.5326 34.6909 21 34.6909C12.4673 34.6909 6.33752 32.2671 5.96639 30.0031C5.96115 29.9736 5.95395 29.9448 5.94544 29.9173V24.41C5.96377 24.427 5.98668 24.4433 6.00566 24.4604C6.14835 24.586 6.29366 24.7111 6.4573 24.8315C8.92297 26.6963 13.8537 28.1455 21 28.1455C28.1162 28.1455 33.0345 26.7081 35.5106 24.8544C35.7083 24.7104 35.8863 24.5618 36.0539 24.4106L36.0545 24.41V29.9147Z" fill="#C3CAD6"/>
</svg>
