<svg width="302" height="44" viewBox="0 0 302 44" fill="none" xmlns="http://www.w3.org/2000/svg">
<path d="M54.992 29V12.776H57.272V20.192L60.56 19.016C61.104 18.824 61.52 18.56 61.808 18.224C62.096 17.888 62.312 17.44 62.456 16.88L63.56 12.776H65.792L64.592 17.312C64.368 18.16 64.064 18.84 63.68 19.352C63.312 19.864 62.8 20.248 62.144 20.504L66.536 29H63.968L60.08 21.296L57.272 22.352V29H54.992ZM68.6191 23.888V21.752C68.6191 19.992 69.0751 18.648 69.9871 17.72C70.9151 16.792 72.1311 16.328 73.6351 16.328C75.1391 16.328 76.3471 16.792 77.2591 17.72C78.1871 18.648 78.6511 19.992 78.6511 21.752V23.888C78.6511 25.648 78.1871 26.992 77.2591 27.92C76.3471 28.848 75.1391 29.312 73.6351 29.312C72.1311 29.312 70.9151 28.848 69.9871 27.92C69.0751 26.992 68.6191 25.648 68.6191 23.888ZM70.8271 23.768C70.8271 26.168 71.7631 27.368 73.6351 27.368C75.5071 27.368 76.4431 26.168 76.4431 23.768V21.872C76.4431 19.472 75.5071 18.272 73.6351 18.272C71.7631 18.272 70.8271 19.472 70.8271 21.872V23.768ZM81.9423 34.064V16.64H83.7423L84.0303 17.696C84.7663 16.784 85.8383 16.328 87.2463 16.328C88.5103 16.328 89.5743 16.792 90.4383 17.72C91.3023 18.632 91.7343 19.888 91.7343 21.488V24.128C91.7343 25.808 91.2783 27.096 90.3663 27.992C89.4543 28.872 88.3263 29.312 86.9823 29.312C86.0383 29.312 85.0943 29.024 84.1503 28.448V34.064H81.9423ZM84.1503 26.504C85.1263 27.08 86.0143 27.368 86.8143 27.368C87.6143 27.368 88.2623 27.104 88.7583 26.576C89.2543 26.032 89.5023 25.176 89.5023 24.008V21.608C89.5023 20.504 89.2543 19.672 88.7583 19.112C88.2783 18.552 87.6383 18.272 86.8383 18.272C86.0543 18.272 85.4063 18.504 84.8943 18.968C84.3983 19.432 84.1503 20.12 84.1503 21.032V26.504ZM95.0204 29V16.64H104.38V29H102.172V18.536H97.2284V29H95.0204ZM107.666 23.888V21.752C107.666 19.992 108.122 18.648 109.034 17.72C109.962 16.792 111.178 16.328 112.682 16.328C114.186 16.328 115.394 16.792 116.306 17.72C117.234 18.648 117.698 19.992 117.698 21.752V23.888C117.698 25.648 117.234 26.992 116.306 27.92C115.394 28.848 114.186 29.312 112.682 29.312C111.178 29.312 109.962 28.848 109.034 27.92C108.122 26.992 107.666 25.648 107.666 23.888ZM109.874 23.768C109.874 26.168 110.81 27.368 112.682 27.368C114.554 27.368 115.49 26.168 115.49 23.768V21.872C115.49 19.472 114.554 18.272 112.682 18.272C110.81 18.272 109.874 19.472 109.874 21.872V23.768ZM120.989 34.064V16.64H122.789L123.077 17.696C123.813 16.784 124.885 16.328 126.293 16.328C127.557 16.328 128.621 16.792 129.485 17.72C130.349 18.632 130.781 19.888 130.781 21.488V24.128C130.781 25.808 130.325 27.096 129.413 27.992C128.501 28.872 127.373 29.312 126.029 29.312C125.085 29.312 124.141 29.024 123.197 28.448V34.064H120.989ZM123.197 26.504C124.173 27.08 125.061 27.368 125.861 27.368C126.661 27.368 127.309 27.104 127.805 26.576C128.301 26.032 128.549 25.176 128.549 24.008V21.608C128.549 20.504 128.301 19.672 127.805 19.112C127.325 18.552 126.685 18.272 125.885 18.272C125.101 18.272 124.453 18.504 123.941 18.968C123.445 19.432 123.197 20.12 123.197 21.032V26.504ZM137.499 29.312C136.219 29.312 135.195 28.968 134.427 28.28C133.659 27.592 133.275 26.608 133.275 25.328C133.275 24.128 133.683 23.2 134.499 22.544C135.331 21.888 136.427 21.56 137.787 21.56H140.187V20.912C140.187 20.064 139.979 19.416 139.563 18.968C139.163 18.52 138.579 18.296 137.811 18.296C136.883 18.296 135.795 18.48 134.547 18.848L134.091 17C135.467 16.552 136.707 16.328 137.811 16.328C139.219 16.328 140.331 16.736 141.147 17.552C141.979 18.368 142.395 19.488 142.395 20.912V29H140.547L140.331 28.184C139.611 28.936 138.667 29.312 137.499 29.312ZM137.859 27.368C138.547 27.368 139.107 27.192 139.539 26.84C139.971 26.472 140.187 26.024 140.187 25.496V23.288H137.787C137.035 23.288 136.475 23.472 136.107 23.84C135.739 24.208 135.555 24.688 135.555 25.28C135.555 25.936 135.755 26.448 136.155 26.816C136.555 27.184 137.123 27.368 137.859 27.368ZM147.994 29V18.536H144.466V16.64H153.754V18.536H150.202V29H147.994ZM155.817 29V16.64H158.025V23.072C158.025 23.92 158.001 24.672 157.953 25.328L163.593 16.64H165.441V29H163.233V22.712C163.233 22.072 163.265 21.304 163.329 20.408L157.713 29H155.817ZM169.129 29V16.64H173.953C175.201 16.64 176.177 16.928 176.881 17.504C177.585 18.08 177.937 18.864 177.937 19.856C177.937 21.04 177.393 21.92 176.305 22.496C177.009 22.752 177.529 23.152 177.865 23.696C178.217 24.224 178.393 24.816 178.393 25.472C178.393 26.48 177.993 27.32 177.193 27.992C176.393 28.664 175.265 29 173.809 29H169.129ZM171.361 27.152H173.641C174.441 27.152 175.041 26.992 175.441 26.672C175.857 26.336 176.065 25.888 176.065 25.328C176.065 24.752 175.873 24.296 175.489 23.96C175.105 23.608 174.521 23.432 173.737 23.432H171.361V27.152ZM171.361 21.704H173.497C174.185 21.704 174.721 21.552 175.105 21.248C175.505 20.944 175.705 20.52 175.705 19.976C175.705 18.888 175.009 18.344 173.617 18.344H171.361V21.704ZM181.552 29V16.64H183.76V21.632H188.776V16.64H190.984V29H188.776V23.552H183.76V29H181.552ZM194.724 29V16.64H196.932V21.464H199.884C201.068 21.464 202.028 21.808 202.764 22.496C203.5 23.184 203.868 24.088 203.868 25.208C203.868 26.328 203.492 27.24 202.74 27.944C202.004 28.648 201.044 29 199.86 29H194.724ZM196.932 27.152H199.812C200.404 27.152 200.852 26.976 201.156 26.624C201.46 26.272 201.612 25.808 201.612 25.232C201.612 24.656 201.46 24.192 201.156 23.84C200.868 23.472 200.428 23.288 199.836 23.288H196.932V27.152ZM205.476 29V16.64H207.684V29H205.476ZM216.211 13.112C216.947 13.112 217.387 12.648 217.531 11.72L219.139 11.96C219.059 12.776 218.747 13.432 218.203 13.928C217.659 14.424 216.995 14.672 216.211 14.672C215.427 14.672 214.763 14.424 214.219 13.928C213.691 13.432 213.387 12.776 213.307 11.96L214.891 11.72C214.971 12.136 215.123 12.472 215.347 12.728C215.571 12.984 215.859 13.112 216.211 13.112ZM211.435 29V16.64H213.643V23.072C213.643 23.92 213.619 24.672 213.571 25.328L219.211 16.64H221.059V29H218.851V22.712C218.851 22.072 218.883 21.304 218.947 20.408L213.331 29H211.435ZM230.56 29V16.64H239.92V29H237.712V18.536H232.768V29H230.56ZM243.205 23.888V21.752C243.205 19.992 243.661 18.648 244.573 17.72C245.501 16.792 246.717 16.328 248.221 16.328C249.725 16.328 250.933 16.792 251.845 17.72C252.773 18.648 253.237 19.992 253.237 21.752V23.888C253.237 25.648 252.773 26.992 251.845 27.92C250.933 28.848 249.725 29.312 248.221 29.312C246.717 29.312 245.501 28.848 244.573 27.92C243.661 26.992 243.205 25.648 243.205 23.888ZM245.413 23.768C245.413 26.168 246.349 27.368 248.221 27.368C250.093 27.368 251.029 26.168 251.029 23.768V21.872C251.029 19.472 250.093 18.272 248.221 18.272C246.349 18.272 245.413 19.472 245.413 21.872V23.768ZM256.528 34.064V16.64H258.328L258.616 17.696C259.352 16.784 260.424 16.328 261.832 16.328C263.096 16.328 264.16 16.792 265.024 17.72C265.888 18.632 266.32 19.888 266.32 21.488V24.128C266.32 25.808 265.864 27.096 264.952 27.992C264.04 28.872 262.912 29.312 261.568 29.312C260.624 29.312 259.68 29.024 258.736 28.448V34.064H256.528ZM258.736 26.504C259.712 27.08 260.6 27.368 261.4 27.368C262.2 27.368 262.848 27.104 263.344 26.576C263.84 26.032 264.088 25.176 264.088 24.008V21.608C264.088 20.504 263.84 19.672 263.344 19.112C262.864 18.552 262.224 18.272 261.424 18.272C260.64 18.272 259.992 18.504 259.48 18.968C258.984 19.432 258.736 20.12 258.736 21.032V26.504ZM271.79 29V18.536H268.262V16.64H277.55V18.536H273.998V29H271.79ZM283.046 29.312C281.766 29.312 280.742 28.968 279.974 28.28C279.206 27.592 278.822 26.608 278.822 25.328C278.822 24.128 279.23 23.2 280.046 22.544C280.878 21.888 281.974 21.56 283.334 21.56H285.734V20.912C285.734 20.064 285.526 19.416 285.11 18.968C284.71 18.52 284.126 18.296 283.358 18.296C282.43 18.296 281.342 18.48 280.094 18.848L279.638 17C281.014 16.552 282.254 16.328 283.358 16.328C284.766 16.328 285.878 16.736 286.694 17.552C287.526 18.368 287.942 19.488 287.942 20.912V29H286.094L285.878 28.184C285.158 28.936 284.214 29.312 283.046 29.312ZM283.406 27.368C284.094 27.368 284.654 27.192 285.086 26.84C285.518 26.472 285.734 26.024 285.734 25.496V23.288H283.334C282.582 23.288 282.022 23.472 281.654 23.84C281.286 24.208 281.102 24.688 281.102 25.28C281.102 25.936 281.302 26.448 281.702 26.816C282.102 27.184 282.67 27.368 283.406 27.368ZM290.18 29L291.836 20.96C292.124 19.568 292.612 18.504 293.3 17.768C294.004 17.016 294.996 16.64 296.276 16.64H299.948V29H297.74V18.536H296.468C295.796 18.536 295.268 18.76 294.884 19.208C294.516 19.656 294.244 20.312 294.068 21.176L292.436 29H290.18Z" fill="white"/>
<g clip-path="url(#clip0)">
<path d="M41.9261 19.3427C41.6973 17.5101 40.9315 16.0507 40.61 15.5035C40.8426 11.6907 40.0866 8.81974 38.3622 6.96753C37.0179 5.52379 35.4475 5.11531 34.65 5.00001C33.4337 2.42894 31.3661 1.93153 30.1094 2.05242C27.7564 -0.138998 25.58 -0.191063 24.1456 0.166687C23.1997 0.403102 22.4592 0.846213 21.9998 1.18028C21.5406 0.845766 20.7996 0.403102 19.854 0.166687C18.4196 -0.191734 16.2431 -0.139445 13.8902 2.05242C12.6321 1.93108 10.5654 2.42894 9.34957 5.00001C8.55206 5.11509 6.98162 5.52356 5.63732 6.96753C3.91248 8.81974 3.15698 11.6907 3.38959 15.5035C3.06804 16.0503 2.30271 17.5101 2.07344 19.3427C1.81446 21.4192 2.20997 24.3476 5.45677 26.7236C5.08047 28.9447 5.43666 32.7683 8.984 34.6484C8.83675 35.4564 8.7391 36.8579 9.46041 38.0559C10.0275 38.9982 10.9645 39.618 12.2484 39.9014C12.8967 40.9018 15.1312 44.0002 17.9197 44.0002C17.9374 44.0002 17.9555 44.0002 17.9731 43.9998C19.468 43.9783 20.8188 43.0948 21.9996 41.3695C23.1807 43.0943 24.5315 43.9783 26.026 43.9998C28.835 44.0409 31.0984 40.908 31.7509 39.9014C33.0349 39.618 33.972 38.9984 34.5389 38.0559C35.2605 36.8579 35.1624 35.4562 35.0153 34.6484C38.5631 32.7683 38.9193 28.9447 38.543 26.7236C41.79 24.3476 42.1858 21.4194 41.9261 19.3427ZM37.2709 25.7522C37.0028 25.931 36.8758 26.259 36.954 26.5719C37.0059 26.7792 38.1721 31.6653 33.8299 33.526C33.465 33.6824 33.2811 34.092 33.4067 34.4683C33.4121 34.4846 33.9262 36.1174 33.232 37.2697C32.8557 37.8952 32.156 38.2972 31.1538 38.4641C30.9304 38.5012 30.7351 38.6362 30.6207 38.8315C30.0243 39.8493 28.0523 42.4749 26.0789 42.4749C26.068 42.4749 26.0564 42.4749 26.045 42.4749C24.8582 42.4566 23.7271 41.4772 22.6833 39.564C22.5495 39.319 22.2639 39.1667 21.9846 39.1667C21.7053 39.1667 21.4487 39.3188 21.3149 39.564C20.2716 41.4772 19.1405 42.4566 17.9532 42.4749C15.9777 42.5066 13.9775 39.8553 13.3776 38.8315C13.2632 38.6362 13.0674 38.5012 12.8444 38.4641C11.8453 38.2974 11.1473 37.8974 10.7701 37.2758C10.0673 36.1172 10.5873 34.4824 10.592 34.4681C10.7171 34.0918 10.5337 33.6822 10.1688 33.5258C5.84938 31.6747 6.99459 26.7777 7.04509 26.5716C7.12329 26.259 6.99637 25.931 6.72823 25.752C1.03818 21.9586 4.64608 16.3542 4.8016 16.1189C4.89545 15.9781 4.9397 15.8101 4.92785 15.6414C4.67915 12.1637 5.28605 9.60362 6.73136 8.03117C8.12102 6.5195 9.80296 6.48062 9.86888 6.47972C10.1808 6.47972 10.461 6.28979 10.577 6.00042C11.4306 3.86709 12.8022 3.5623 13.5154 3.5623C13.7449 3.5623 13.9067 3.59403 13.9601 3.60655C14.2202 3.67135 14.4948 3.5956 14.6843 3.40588C16.2364 1.85444 17.8317 1.25849 19.426 1.633C20.6461 1.91969 21.4405 2.68815 21.4458 2.69351C21.5889 2.83652 21.783 2.91697 21.985 2.91697H22.0141C22.2163 2.91697 22.4103 2.83652 22.5533 2.69351C22.5609 2.68591 23.3282 1.94337 24.5154 1.64663C26.1286 1.24351 27.7437 1.83455 29.3148 3.40588C29.5 3.59157 29.7747 3.66643 30.0319 3.60833C30.2596 3.55605 32.2937 3.17975 33.4221 6.00064C33.5365 6.28666 33.8172 6.47615 34.1253 6.47995C34.1962 6.48107 35.8781 6.5195 37.2678 8.03139C38.7128 9.60384 39.3195 12.1642 39.0713 15.6416C39.0594 15.8101 39.1037 15.9783 39.1975 16.1191C39.2074 16.1336 40.1696 17.5955 40.4118 19.5324C40.7275 22.0594 39.6708 24.1523 37.2709 25.7522Z" fill="white"/>
<path d="M34.8256 5.4762C34.6922 5.07644 34.2593 4.86103 33.8607 4.99376C29.1174 6.57493 29.0627 10.5388 29.0627 10.7066C29.0627 11.1258 29.401 11.4639 29.82 11.4666C29.822 11.4666 29.8238 11.4666 29.8253 11.4666C30.2421 11.4666 30.5824 11.1287 30.588 10.7117C30.59 10.5877 30.6722 7.66427 34.3429 6.44085C34.7427 6.30768 34.9585 5.87596 34.8256 5.4762Z" fill="white"/>
<path d="M38.2715 25.9239C38.0161 25.5891 37.5382 25.5241 37.2025 25.7797C35.9597 26.7267 34.8357 27.0642 33.8641 26.7842C32.133 26.2856 31.2609 24.0055 31.2526 23.9823C31.1062 23.5879 30.6671 23.3861 30.2736 23.5327C29.8786 23.6784 29.6763 24.1172 29.8225 24.5123C29.8679 24.6352 30.9621 27.5289 33.4328 28.2474C33.8013 28.3546 34.1769 28.408 34.5591 28.408C35.6962 28.408 36.8921 27.9347 38.1274 26.9929C38.4624 26.7377 38.5267 26.2586 38.2715 25.9239Z" fill="white"/>
<path d="M25.3758 26.56C25.0783 26.2621 24.5948 26.2621 24.2974 26.56C23.9995 26.8579 23.9995 27.3408 24.2974 27.6384C26.7739 30.1149 26.2602 32.5077 26.2338 32.621C26.1346 33.0283 26.3829 33.4393 26.7898 33.5412C26.8515 33.5564 26.9138 33.564 26.975 33.564C27.3167 33.564 27.628 33.3325 27.7144 32.9859C27.7482 32.8525 28.4961 29.6803 25.3758 26.56Z" fill="white"/>
<path d="M37.2094 19.4122C37.066 19.0171 36.6287 18.8127 36.2331 18.955C36.0787 19.0102 32.442 20.2819 30.5105 17.711C29.5072 16.3759 29.0761 15.2325 28.7295 14.3139C28.3043 13.187 27.9032 12.1222 26.5699 12.0123C26.1538 11.9772 25.7815 12.2898 25.7473 12.7097C25.7127 13.1291 26.0248 13.4976 26.4447 13.5322C26.764 13.5581 26.884 13.7434 27.3021 14.8517C27.663 15.8079 28.1568 17.1173 29.2909 18.6267C30.62 20.3956 32.4742 20.8398 34.0031 20.8398C35.4832 20.8398 36.6582 20.4231 36.7549 20.3882C37.15 20.2441 37.3529 19.8075 37.2094 19.4122Z" fill="white"/>
<path d="M21.9855 1.39124C21.5645 1.39124 21.2228 1.7329 21.2228 2.15389V39.9282C21.2228 40.3492 21.5645 40.6909 21.9855 40.6909C22.4065 40.6909 22.7481 40.3497 22.7481 39.9284V2.15389C22.7481 1.7329 22.4065 1.39124 21.9855 1.39124Z" fill="white"/>
<path d="M27.5623 7.96216C27.5562 7.54117 27.2224 7.19951 26.7884 7.21046C26.367 7.21649 26.0307 7.5633 26.0367 7.98428C26.0374 8.03188 26.079 12.7874 23.701 15.8034C23.4402 16.1343 23.4965 16.6139 23.8277 16.8746C23.9675 16.9853 24.1338 17.0387 24.2994 17.0387C24.5248 17.0387 24.7483 16.9392 24.8985 16.7482C27.6083 13.3119 27.5652 8.17914 27.5623 7.96216Z" fill="white"/>
<path d="M29.1128 31.3254C25.7507 31.3254 24.178 35.9273 24.1128 36.1235C23.9796 36.5228 24.1953 36.9536 24.5946 37.0874C24.6746 37.1145 24.7563 37.127 24.8363 37.127C25.1552 37.127 25.4526 36.9257 25.5599 36.6063C25.9112 35.5617 27.2345 32.8507 29.113 32.8507C29.534 32.8507 29.8757 32.5091 29.8757 32.0881C29.8757 31.6671 29.5338 31.3254 29.1128 31.3254Z" fill="white"/>
<path d="M29.972 1.93381C29.6348 1.68242 29.1566 1.75236 28.905 2.09045L27.0751 4.54912C26.8237 4.88654 26.8939 5.36451 27.2317 5.61612C27.3683 5.71824 27.5276 5.76717 27.6862 5.76717C27.9193 5.76717 28.1492 5.66125 28.2987 5.45948L30.1286 3.0008C30.38 2.66339 30.3098 2.18564 29.972 1.93381Z" fill="white"/>
<path d="M14.3572 6.8634C12.675 6.8634 11.3063 8.23206 11.3063 9.91423C11.3063 11.5964 12.675 12.9651 14.3572 12.9651C16.0393 12.9651 17.408 11.5964 17.408 9.91423C17.408 8.23206 16.0393 6.8634 14.3572 6.8634ZM14.3572 11.4398C13.5159 11.4398 12.8316 10.7555 12.8316 9.91423C12.8316 9.07292 13.5159 8.3887 14.3572 8.3887C15.1985 8.3887 15.8827 9.07292 15.8827 9.91423C15.8825 10.7555 15.1982 11.4398 14.3572 11.4398Z" fill="white"/>
<path d="M9.01799 16.7787C7.33582 16.7787 5.96716 18.1474 5.96716 19.8296C5.96716 21.5117 7.33582 22.8804 9.01799 22.8804C10.7002 22.8804 12.0688 21.5117 12.0688 19.8296C12.069 18.1474 10.7002 16.7787 9.01799 16.7787ZM9.01799 21.3551C8.17668 21.3551 7.49246 20.6709 7.49246 19.8296C7.49246 18.9883 8.17668 18.304 9.01799 18.304C9.85929 18.304 10.5435 18.9883 10.5435 19.8296C10.5435 20.6709 9.85929 21.3551 9.01799 21.3551Z" fill="white"/>
<path d="M16.6454 23.6433C14.9632 23.6433 13.5945 25.012 13.5945 26.6941C13.5945 28.3763 14.9632 29.745 16.6454 29.745C18.3275 29.745 19.6962 28.3763 19.6962 26.6941C19.6962 25.012 18.3275 23.6433 16.6454 23.6433ZM16.6454 28.2197C15.8041 28.2197 15.1198 27.5354 15.1198 26.6941C15.1198 25.8528 15.8041 25.1686 16.6454 25.1686C17.4867 25.1686 18.1709 25.8528 18.1709 26.6941C18.1709 27.5354 17.4864 28.2197 16.6454 28.2197Z" fill="white"/>
<path d="M16.6454 32.0333C14.9632 32.0333 13.5945 33.402 13.5945 35.0842C13.5945 36.7663 14.9632 38.135 16.6454 38.135C18.3275 38.135 19.6962 36.7663 19.6962 35.0842C19.6962 33.402 18.3275 32.0333 16.6454 32.0333ZM16.6454 36.6097C15.8041 36.6097 15.1198 35.9255 15.1198 35.0842C15.1198 34.2428 15.8041 33.5586 16.6454 33.5586C17.4867 33.5586 18.1709 34.2428 18.1709 35.0842C18.1707 35.9255 17.4864 36.6097 16.6454 36.6097Z" fill="white"/>
<path d="M14.3572 11.4398C13.9362 11.4398 13.5945 11.7814 13.5945 12.2024V19.8296C13.5945 20.2506 13.9362 20.5922 14.3572 20.5922C14.7786 20.5922 15.1198 20.251 15.1198 19.8296V12.2024C15.1198 11.7814 14.7782 11.4398 14.3572 11.4398Z" fill="white"/>
<path d="M16.6453 19.067H11.3061C10.8851 19.067 10.5435 19.4086 10.5435 19.8296C10.5435 20.2506 10.8851 20.5923 11.3061 20.5923H16.6451C17.0665 20.5923 17.4078 20.2506 17.4078 19.8296C17.408 19.4086 17.0663 19.067 16.6453 19.067Z" fill="white"/>
<path d="M16.6453 19.067C16.2244 19.067 15.8827 19.4086 15.8827 19.8296V24.406C15.8827 24.8269 16.2244 25.1686 16.6453 25.1686C17.0668 25.1686 17.408 24.8274 17.408 24.406V19.8296C17.408 19.4086 17.0663 19.067 16.6453 19.067Z" fill="white"/>
<path d="M16.6453 28.2196C16.2244 28.2196 15.8827 28.5613 15.8827 28.9823V32.796C15.8827 33.217 16.2244 33.5586 16.6453 33.5586C17.0668 33.5586 17.408 33.2174 17.408 32.796V28.9823C17.408 28.5613 17.0663 28.2196 16.6453 28.2196Z" fill="white"/>
</g>
<defs>
<clipPath id="clip0">
<rect width="44" height="44" fill="white"/>
</clipPath>
</defs>
</svg>
