<?xml version="1.0" encoding="utf-8"?><svg xmlns="http://www.w3.org/2000/svg" xmlns:xlink="http://www.w3.org/1999/xlink"><symbol viewBox="0 0 36 36" id="app" xmlns="http://www.w3.org/2000/svg"><path d="M14.567 0H2.147A2.15 2.15 0 000 2.147v12.42a2.15 2.15 0 002.147 2.147h12.42a2.15 2.15 0 002.147-2.147V2.147A2.15 2.15 0 0014.567 0zm.862 14.567a.862.862 0 01-.862.862H2.147a.862.862 0 01-.861-.862V2.147c0-.475.386-.861.861-.861h12.42c.475 0 .862.386.862.861v12.42zM33.853 0h-12.42a2.15 2.15 0 00-2.147 2.147v12.42a2.15 2.15 0 002.147 2.147h12.42A2.15 2.15 0 0036 14.567V2.147A2.15 2.15 0 0033.853 0zm.861 14.567a.862.862 0 01-.861.862h-12.42a.862.862 0 01-.862-.862V2.147c0-.475.387-.861.862-.861h12.42c.475 0 .861.386.861.861v12.42zm-20.147 4.719H2.147A2.15 2.15 0 000 21.433v12.42A2.15 2.15 0 002.147 36h12.42a2.15 2.15 0 002.147-2.147v-12.42a2.15 2.15 0 00-2.147-2.147zm.862 14.567a.862.862 0 01-.862.861H2.147a.862.862 0 01-.861-.861v-12.42c0-.475.386-.862.861-.862h12.42c.475 0 .862.387.862.862v12.42zM35.357 27h-7.071v-7.071a.642.642 0 10-1.286 0V27h-7.071a.642.642 0 100 1.286H27v7.071a.642.642 0 101.286 0v-7.071h7.071a.642.642 0 100-1.286z"/></symbol><symbol viewBox="0 0 36 33" id="bell" xmlns="http://www.w3.org/2000/svg"><path d="M28.214 17.4v-5.396c.026-4.115-2.74-6.843-5.118-7.93A12.062 12.062 0 0021 3.344V3c0-1.654-1.346-3-3-3s-3 1.346-3 3v.397c-.643.173-1.274.4-1.888.682C10.486 5.29 7.824 8.21 7.8 12v5.4c0 3.833-1.354 7.121-4.023 9.775a.601.601 0 00.321 1.017l5.695.983a77.49 77.49 0 002.967.457C13.807 31.684 15.863 33 18.11 33c2.246 0 4.303-1.318 5.35-3.371a76.063 76.063 0 002.952-.455l5.694-.983a.6.6 0 00.321-1.017c-2.795-2.779-4.213-6.068-4.213-9.775zM16.2 3c0-.992.808-1.8 1.8-1.8s1.8.808 1.8 1.8v.11a11.93 11.93 0 00-3.6.027V3zm1.91 28.8c-1.52 0-2.939-.755-3.85-1.989a37.16 37.16 0 003.843.208c1.256 0 2.512-.07 3.858-.21-.912 1.236-2.332 1.991-3.851 1.991zm8.099-3.808c-1.152.198-2.207.36-3.204.487H23c-.44.056-.867.104-1.285.146l-.01.001c-.383.038-.758.07-1.129.096l-.208.014c-.32.02-.638.038-.954.05-.064.002-.129.006-.193.007-.746.026-1.483.026-2.228.001l-.2-.008a36.5 36.5 0 01-.94-.05l-.225-.015a33.72 33.72 0 01-1.095-.093c-.014 0-.027-.002-.04-.003a48.09 48.09 0 01-1.275-.145h-.005a73.833 73.833 0 01-3.217-.489L5.4 27.198C7.79 24.466 9 21.175 9 17.4v-5.396c.02-3.261 2.333-5.783 4.615-6.835a10.726 10.726 0 012.098-.71c.006-.001.012 0 .018-.002a10.908 10.908 0 014.548-.04c.008.001.016-.002.024-.001.782.163 1.553.41 2.295.75C24.81 6.177 27.035 8.681 27.014 12v5.4c0 3.62 1.305 6.985 3.788 9.798l-4.593.793z"/><path d="M21.85 6.803c-2.325-1.063-5.172-1.064-7.481.001-1.317.607-3.551 2.384-3.569 5.192a.6.6 0 00.596.604h.004a.6.6 0 00.6-.596c.014-2.207 1.811-3.621 2.871-4.11 1.998-.923 4.468-.92 6.48 0a.6.6 0 00.5-1.091zM2.881 12.176a.6.6 0 00-.848 0A6.902 6.902 0 000 17.09a6.9 6.9 0 002.033 4.914.598.598 0 00.848 0 .6.6 0 000-.849A5.71 5.71 0 011.2 17.09a5.71 5.71 0 011.681-4.066.6.6 0 000-.848z"/><path d="M4.983 20.814a.598.598 0 00.424-1.024 3.94 3.94 0 010-5.566.6.6 0 10-.848-.848 5.141 5.141 0 000 7.262c.117.118.27.176.424.176zm28.984-8.638a.6.6 0 10-.848.848A5.71 5.71 0 0134.8 17.09a5.71 5.71 0 01-1.681 4.065.6.6 0 10.848.849A6.9 6.9 0 0036 17.09a6.902 6.902 0 00-2.033-4.914z"/><path d="M30.593 13.376a.6.6 0 000 .848 3.94 3.94 0 010 5.566.6.6 0 10.848.848 5.141 5.141 0 000-7.262.6.6 0 00-.848 0z"/></symbol><symbol viewBox="0 0 44 44" id="brain" xmlns="http://www.w3.org/2000/svg"><g clip-path="url(#cclip0)"><path d="M41.926 19.343c-.229-1.833-.995-3.292-1.316-3.84.233-3.812-.523-6.683-2.248-8.535A6.348 6.348 0 0034.65 5c-1.216-2.571-3.284-3.068-4.54-2.948C27.755-.139 25.58-.19 24.145.167A6.297 6.297 0 0022 1.18 6.29 6.29 0 0019.854.167c-1.434-.359-3.61-.306-5.964 1.885-1.258-.12-3.325.377-4.54 2.948a6.345 6.345 0 00-3.713 1.968C3.912 8.82 3.157 11.69 3.39 15.504c-.322.546-1.087 2.006-1.317 3.839-.259 2.076.137 5.005 3.384 7.38-.377 2.222-.02 6.045 3.527 7.925-.147.808-.245 2.21.476 3.408.567.942 1.504 1.562 2.788 1.845.649 1 2.883 4.1 5.672 4.1l.053-.001c1.495-.022 2.846-.905 4.027-2.63 1.18 1.724 2.532 2.608 4.026 2.63 2.809.04 5.072-3.092 5.725-4.099 1.284-.283 2.221-.903 2.788-1.845.721-1.198.623-2.6.476-3.408 3.548-1.88 3.904-5.703 3.528-7.924 3.247-2.376 3.643-5.305 3.383-7.381zm-4.655 6.41a.763.763 0 00-.317.819c.052.207 1.218 5.093-3.124 6.954a.762.762 0 00-.423.942c.005.017.52 1.65-.175 2.802-.376.625-1.076 1.027-2.078 1.194a.763.763 0 00-.533.367c-.597 1.018-2.569 3.644-4.542 3.644h-.034c-1.187-.018-2.318-.998-3.362-2.911a.81.81 0 00-.698-.397.762.762 0 00-.67.397c-1.043 1.913-2.175 2.893-3.362 2.91-1.975.033-3.976-2.619-4.575-3.642a.764.764 0 00-.534-.368c-.999-.167-1.697-.567-2.074-1.188-.703-1.159-.183-2.794-.178-2.808a.763.763 0 00-.423-.942c-4.32-1.851-3.174-6.748-3.124-6.954a.763.763 0 00-.317-.82c-5.69-3.793-2.082-9.398-1.926-9.633a.764.764 0 00.126-.478c-.249-3.477.358-6.037 1.803-7.61C8.121 6.52 9.803 6.481 9.87 6.48c.312 0 .592-.19.708-.48.854-2.133 2.225-2.438 2.938-2.438.23 0 .392.032.445.045a.763.763 0 00.724-.201c1.552-1.552 3.148-2.148 4.742-1.773a4.712 4.712 0 012.02 1.06.763.763 0 00.539.224h.03c.201 0 .395-.08.538-.223.008-.008.775-.75 1.962-1.047 1.614-.403 3.229.188 4.8 1.759.185.186.46.26.717.202.228-.052 2.262-.428 3.39 2.393a.77.77 0 00.703.479c.071.001 1.753.04 3.143 1.551 1.445 1.573 2.051 4.133 1.803 7.61a.765.765 0 00.127.478c.01.015.972 1.477 1.214 3.413.316 2.527-.741 4.62-3.141 6.22z"/><path d="M34.826 5.476a.764.764 0 00-.965-.482c-4.744 1.58-4.798 5.545-4.798 5.713a.76.76 0 00.757.76h.005a.765.765 0 00.763-.755c.002-.124.084-3.048 3.755-4.271a.763.763 0 00.483-.965zm3.446 20.448a.763.763 0 00-1.07-.144c-1.242.947-2.366 1.284-3.338 1.004-1.731-.498-2.603-2.778-2.611-2.802a.762.762 0 00-1.43.53c.045.123 1.14 3.017 3.61 3.735a3.98 3.98 0 001.126.161c1.137 0 2.333-.473 3.568-1.415a.763.763 0 00.145-1.07zm-12.896.636a.762.762 0 10-1.079 1.078c2.477 2.477 1.963 4.87 1.937 4.983a.763.763 0 001.48.365c.034-.133.782-3.306-2.338-6.426zm11.834-7.148a.764.764 0 00-.977-.457c-.154.055-3.791 1.327-5.722-1.244-1.004-1.335-1.435-2.478-1.781-3.397-.426-1.127-.827-2.192-2.16-2.302a.763.763 0 10-.125 1.52c.319.026.439.211.857 1.32.361.956.855 2.265 1.989 3.775 1.329 1.769 3.183 2.213 4.712 2.213 1.48 0 2.655-.417 2.752-.452a.762.762 0 00.454-.976zM21.985 1.391a.763.763 0 00-.762.763v37.774a.763.763 0 001.525 0V2.154a.763.763 0 00-.763-.763z"/><path d="M27.562 7.962a.752.752 0 00-.774-.752.763.763 0 00-.751.774c0 .048.042 4.803-2.336 7.82a.762.762 0 101.197.944c2.71-3.436 2.667-8.569 2.664-8.786zm1.551 23.363c-3.362 0-4.935 4.602-5 4.799a.762.762 0 001.447.482c.351-1.044 1.675-3.755 3.553-3.755a.763.763 0 000-1.526zm.859-29.391a.763.763 0 00-1.067.156l-1.83 2.46a.763.763 0 001.224.91L30.129 3a.763.763 0 00-.157-1.066zM14.357 6.863a3.054 3.054 0 00-3.05 3.051 3.054 3.054 0 003.05 3.051 3.054 3.054 0 003.051-3.05 3.054 3.054 0 00-3.05-3.052zm0 4.577a1.527 1.527 0 01-1.525-1.526 1.527 1.527 0 013.051 0c0 .841-.685 1.526-1.526 1.526zm-5.339 5.339a3.054 3.054 0 00-3.05 3.05 3.054 3.054 0 003.05 3.051 3.054 3.054 0 003.05-3.05 3.054 3.054 0 00-3.05-3.051zm0 4.576a1.527 1.527 0 01-1.526-1.525c0-.842.685-1.526 1.526-1.526s1.525.684 1.525 1.526c0 .84-.684 1.525-1.525 1.525zm7.627 2.288a3.054 3.054 0 00-3.05 3.051 3.054 3.054 0 003.05 3.051 3.054 3.054 0 003.051-3.05 3.054 3.054 0 00-3.05-3.052zm0 4.577a1.527 1.527 0 01-1.525-1.526 1.527 1.527 0 013.051 0c0 .841-.685 1.526-1.526 1.526zm0 3.813a3.054 3.054 0 00-3.05 3.051 3.054 3.054 0 003.05 3.051 3.054 3.054 0 003.051-3.05 3.054 3.054 0 00-3.05-3.052zm0 4.577a1.527 1.527 0 01-1.525-1.526 1.527 1.527 0 013.051 0c0 .841-.685 1.526-1.526 1.526z"/><path d="M14.357 11.44a.763.763 0 00-.762.762v7.628a.763.763 0 001.525 0v-7.628a.763.763 0 00-.763-.762z"/><path d="M16.645 19.067h-5.339a.763.763 0 000 1.525h5.34a.763.763 0 000-1.525z"/><path d="M16.645 19.067a.763.763 0 00-.762.763v4.576a.763.763 0 001.525 0V19.83a.763.763 0 00-.763-.763zm0 9.153a.763.763 0 00-.762.762v3.814a.763.763 0 001.525 0v-3.814a.763.763 0 00-.763-.762z"/></g><defs><clipPath id="cclip0"><path d="M0 0h44v44H0z"/></clipPath></defs></symbol><symbol viewBox="0 0 36 36" id="calendar" xmlns="http://www.w3.org/2000/svg"><path d="M34.2 2.4H30V.6a.6.6 0 00-.6-.6h-4.2a.6.6 0 00-.6.6v1.8H11.4V.6a.6.6 0 00-.6-.6H6.6a.6.6 0 00-.6.6v1.8H1.8a.6.6 0 00-.6.6v32.4a.6.6 0 00.6.6h32.4a.6.6 0 00.6-.6V3a.6.6 0 00-.6-.6zm-8.4-1.2h3v3.6h-3V1.2zm-18.6 0h3v3.6h-3V1.2zM2.4 3.6H6v1.8a.6.6 0 00.6.6h4.2a.6.6 0 00.6-.6V3.6h13.2v1.8a.6.6 0 00.6.6h4.2a.6.6 0 00.6-.6V3.6h3.6V9H2.4V3.6zm0 31.2V10.2h31.2v24.6H2.4z"/><path d="M22.8 13.8H6.6v17.4h22.8V13.8h-6.6zM18.6 15h4.2v4.2h-4.2V15zm4.2 9.6h-4.2v-4.2h4.2v4.2zm-9.6-4.2h4.2v4.2h-4.2v-4.2zm0-5.4h4.2v4.2h-4.2V15zm-5.4 0H12v4.2H7.8V15zm0 5.4H12v4.2H7.8v-4.2zM12 30H7.8v-4.2H12V30zm5.4 0h-4.2v-4.2h4.2V30zm5.4 0h-4.2v-4.2h4.2V30zm5.4 0H24v-4.2h4.2V30zm0-5.4H24v-4.2h4.2v4.2zm0-9.6v4.2H24V15h4.2z"/></symbol><symbol viewBox="0 0 12 8" id="checkbox" xmlns="http://www.w3.org/2000/svg"><path d="M11.25.135L4.665 7.05.696 4.088a.45.45 0 00-.602.062.382.382 0 00.067.562l4.285 3.2a.448.448 0 00.589-.046l6.857-7.2A.381.381 0 0011.856.1a.45.45 0 00-.605.034z"/></symbol><symbol viewBox="0 0 20 20" id="clip" xmlns="http://www.w3.org/2000/svg"><g clip-path="url(#fclip0)"><path d="M19.427 7.441a.387.387 0 00-.548 0L8.304 18.017a4.114 4.114 0 01-2.93 1.208 4.113 4.113 0 01-2.931-1.209 4.116 4.116 0 01-1.208-2.93 4.11 4.11 0 011.208-2.93L13.018 1.58c1.122-1.122 2.884-1.054 4.099.16 1.214 1.214 1.282 2.976.16 4.099l-9.934 9.934a1.428 1.428 0 01-2.016 0 1.427 1.427 0 010-2.015l6.73-6.73a.387.387 0 10-.548-.548l-6.73 6.73a2.203 2.203 0 000 3.111 2.203 2.203 0 003.112 0l9.934-9.935c1.435-1.435 1.366-3.668-.16-5.194-1.526-1.526-3.76-1.595-5.195-.16L1.895 11.607a4.883 4.883 0 00-1.436 3.479c0 1.318.51 2.553 1.436 3.479A4.883 4.883 0 005.374 20c1.317 0 2.553-.51 3.478-1.435L19.427 7.989a.387.387 0 000-.548z"/></g><defs><clipPath id="fclip0"><path d="M0 0h20v20H0z"/></clipPath></defs></symbol><symbol viewBox="0 0 24 24" id="clock" xmlns="http://www.w3.org/2000/svg"><path d="M12 0C5.383 0 0 5.383 0 12s5.383 12 12 12 12-5.383 12-12S18.617 0 12 0zm0 23.2C5.824 23.2.8 18.176.8 12 .8 5.824 5.824.8 12 .8 18.176.8 23.2 5.824 23.2 12c0 6.176-5.024 11.2-11.2 11.2z"/><path d="M12.4 10.408V6.352a.4.4 0 10-.8 0v4.056c-.56.146-.998.584-1.143 1.144H7.6a.4.4 0 100 .8h2.857c.179.688.8 1.2 1.543 1.2.882 0 1.6-.718 1.6-1.6 0-.744-.512-1.365-1.2-1.544zm-.4 2.344a.8.8 0 11.002-1.602.8.8 0 01-.002 1.602zm0-8.8a.4.4 0 00.4-.4v-.4a.4.4 0 10-.8 0v.4c0 .22.18.4.4.4zm0 16a.4.4 0 00-.4.4v.4a.4.4 0 10.8 0v-.4a.4.4 0 00-.4-.4zm8.8-8.4h-.4a.4.4 0 100 .8h.4a.4.4 0 100-.8zm-17.2 0h-.4a.4.4 0 100 .8h.4a.4.4 0 100-.8zm14.34-6.106l-.283.283a.4.4 0 10.566.565l.282-.282a.4.4 0 10-.565-.566zM5.778 17.608l-.283.283a.4.4 0 10.566.566l.282-.283a.4.4 0 10-.565-.566zm12.445 0a.4.4 0 10-.566.566l.283.283a.399.399 0 00.565 0 .4.4 0 000-.566l-.282-.283zM6.06 5.446a.4.4 0 10-.565.566l.283.282a.399.399 0 00.565 0 .4.4 0 000-.565l-.282-.283z"/></symbol><symbol viewBox="0 0 42 44" id="dashboard" xmlns="http://www.w3.org/2000/svg"><path d="M37.268 5.57C36.51 2.762 30.868 0 21 0 11.131 0 5.49 2.762 4.732 5.57a.641.641 0 00-.096.32v24.22a.62.62 0 00.077.295C5.486 33.608 12.402 36 21 36c8.578 0 15.483-2.382 16.282-5.574a.646.646 0 00.082-.317V5.891a.633.633 0 00-.096-.32zm-1.265 16.675a1.602 1.602 0 01-.17.432 2.23 2.23 0 01-.294.423 3.55 3.55 0 01-.238.256c-.053.052-.111.103-.17.155-.107.093-.22.186-.344.279-.054.04-.112.078-.169.117a7.567 7.567 0 01-.471.303c-.045.027-.093.053-.14.079-.194.11-.398.22-.618.325l-.086.04c-.246.116-.502.23-.776.34l-.024.009c-1.486.594-3.388 1.093-5.604 1.42l-.033.005c-.43.063-.872.12-1.326.17-.074.007-.152.012-.227.02-.396.042-.796.08-1.208.11-.189.013-.387.02-.579.032-.31.018-.617.038-.935.05a45.246 45.246 0 01-3.183-.002c-.318-.012-.625-.032-.935-.05-.192-.011-.39-.018-.578-.032-.412-.03-.813-.068-1.21-.11l-.226-.02a37.707 37.707 0 01-1.36-.175c-2.215-.327-4.116-.826-5.603-1.42l-.023-.01c-.274-.11-.532-.223-.777-.339l-.086-.04c-.22-.106-.423-.214-.618-.325-.046-.026-.095-.052-.14-.079a7.53 7.53 0 01-.471-.303c-.056-.039-.115-.078-.168-.117a5.396 5.396 0 01-.345-.28 3.42 3.42 0 01-.551-.592 2.438 2.438 0 01-.245-.436 1.586 1.586 0 01-.075-.237c-.025-.104-.052-.21-.052-.316 0-.074.009-.148.02-.221a.652.652 0 00-.02-.291v-4.86l.06.05c.143.127.289.252.452.372C8.923 18.842 13.854 20.29 21 20.29c7.116 0 12.035-1.438 14.51-3.291a6.74 6.74 0 00.544-.444v4.859a.653.653 0 00-.02.291c.013.073.02.147.02.221 0 .106-.026.212-.051.318zM36.054 8.7v4.86a.653.653 0 00-.02.29c.013.074.02.148.02.222 0 .105-.026.211-.051.317a1.606 1.606 0 01-.17.432 2.219 2.219 0 01-.294.423 3.551 3.551 0 01-.408.411c-.107.094-.22.187-.344.279-.054.04-.112.079-.169.118a7.567 7.567 0 01-.471.303c-.045.027-.093.052-.14.078-.194.11-.398.22-.618.326l-.086.04c-.246.115-.502.23-.776.34l-.024.008c-1.486.594-3.388 1.093-5.604 1.42l-.033.005c-.43.064-.872.12-1.326.17-.074.008-.152.013-.227.02-.396.042-.796.08-1.208.11-.189.014-.387.02-.579.032-.31.019-.617.039-.935.05a45.246 45.246 0 01-3.183-.002c-.318-.011-.625-.032-.935-.05-.192-.01-.39-.018-.578-.032-.412-.03-.813-.068-1.21-.11-.074-.007-.152-.012-.226-.02a37.24 37.24 0 01-1.326-.17.198.198 0 01-.033-.004c-2.216-.327-4.117-.827-5.604-1.42a13.9 13.9 0 01-.8-.349l-.086-.04c-.22-.106-.423-.215-.618-.326-.046-.026-.095-.051-.14-.078a8.014 8.014 0 01-.471-.303c-.056-.04-.115-.078-.168-.118a5.361 5.361 0 01-.345-.279 3.418 3.418 0 01-.551-.592 2.438 2.438 0 01-.245-.436 1.586 1.586 0 01-.075-.238c-.025-.104-.052-.21-.052-.315 0-.074.009-.148.02-.222a.653.653 0 00-.02-.29V8.7c.079.071.169.141.254.212.047.04.09.078.14.118.197.154.409.307.639.455.047.031.101.061.15.092a11.194 11.194 0 00.851.478c.239.122.49.24.753.355.044.02.083.039.127.057.307.13.633.255.972.375.093.034.192.065.288.098.27.09.548.178.837.262.104.03.206.062.313.09.383.107.778.207 1.193.3.057.013.119.024.176.036.366.08.746.154 1.136.223.132.024.266.046.401.069.371.06.753.116 1.145.167.101.013.197.028.3.04.487.06.99.11 1.508.153l.39.028c.415.03.838.055 1.272.074a51.214 51.214 0 002.21.053c.596 0 1.17-.013 1.735-.032l.475-.02c.434-.02.857-.045 1.271-.075.13-.01.262-.017.39-.028a39.481 39.481 0 001.51-.152c.102-.013.198-.028.299-.04a35.076 35.076 0 001.546-.237c.39-.069.77-.143 1.136-.223.057-.012.119-.023.176-.036.415-.093.81-.194 1.193-.3.107-.029.209-.06.313-.09.289-.084.567-.171.837-.262.096-.033.195-.064.288-.098.34-.12.666-.245.972-.375.044-.018.083-.038.127-.057a13.941 13.941 0 00.993-.48 10.4 10.4 0 00.61-.353c.05-.03.103-.06.151-.092.23-.148.442-.3.639-.455.049-.04.092-.079.14-.118.085-.07.175-.14.253-.212zM21 1.309c8.872 0 15.054 2.587 15.054 4.91 0 2.322-6.182 4.908-15.054 4.908S5.945 8.541 5.945 6.218C5.945 3.896 12.128 1.31 21 1.31zm15.054 28.606a.669.669 0 00-.02.088c-.371 2.264-6.501 4.688-15.034 4.688-8.533 0-14.662-2.424-15.034-4.688a.713.713 0 00-.02-.086V24.41c.018.017.04.033.06.05.142.126.288.251.451.371 2.466 1.865 7.397 3.314 14.543 3.314 7.116 0 12.035-1.437 14.51-3.29a6.96 6.96 0 00.544-.444v-.001 5.505z"/></symbol><symbol viewBox="0 0 36 36" id="document" xmlns="http://www.w3.org/2000/svg"><path d="M25.5 13.2h-15a.6.6 0 100 1.2h15a.6.6 0 100-1.2zm-15-3.6h6a.6.6 0 100-1.2h-6a.6.6 0 100 1.2zm15 8.4h-15a.6.6 0 100 1.2h15a.6.6 0 100-1.2zm0 4.8h-15a.6.6 0 100 1.2h15a.6.6 0 100-1.2zm0 4.8h-15a.6.6 0 100 1.2h15a.6.6 0 100-1.2z"/><path d="M23.348 0H3.9v36h28.2V8.752L23.348 0zm.352 2.048L30.052 8.4H23.7V2.048zM5.1 34.8V1.2h17.4v8.4h8.4v25.2H5.1z"/></symbol><symbol viewBox="0 0 36 36" id="gear" xmlns="http://www.w3.org/2000/svg"><path d="M34.147 14h-3.368c-.542 0-.988-.298-1.195-.798a1.258 1.258 0 01.28-1.41l2.381-2.38c.35-.35.543-.816.543-1.31 0-.496-.193-.961-.543-1.312L29.21 3.755c-.7-.7-1.92-.702-2.622 0l-2.38 2.38a1.259 1.259 0 01-1.41.281A1.257 1.257 0 0122 5.221V1.853A1.855 1.855 0 0020.147 0h-4.294A1.855 1.855 0 0014 1.853v3.368c0 .542-.298.988-.798 1.195a1.256 1.256 0 01-1.41-.28l-2.38-2.381c-.701-.702-1.922-.7-2.622 0L3.755 6.79c-.35.35-.543.816-.543 1.311s.193.96.543 1.311l2.381 2.38c.382.383.487.91.28 1.41-.207.5-.653.798-1.195.798H1.853A1.855 1.855 0 000 15.853v4.293C0 21.169.831 22 1.853 22h3.368c.542 0 .988.298 1.195.798a1.26 1.26 0 01-.28 1.41l-2.381 2.38c-.35.35-.543.816-.543 1.31 0 .496.193.961.543 1.312l3.035 3.035c.7.701 1.92.702 2.622 0l2.38-2.381a1.258 1.258 0 011.41-.28c.5.207.798.653.798 1.195v3.368c0 1.022.831 1.853 1.853 1.853h4.293a1.855 1.855 0 001.853-1.853v-3.368c0-.542.298-.988.798-1.195a1.257 1.257 0 011.41.28l2.38 2.381c.702.702 1.922.7 2.622 0l3.036-3.035c.35-.35.542-.816.542-1.311s-.192-.96-.542-1.311l-2.382-2.38a1.26 1.26 0 01-.28-1.41c.207-.5.654-.798 1.196-.798h3.368A1.855 1.855 0 0036 20.147v-4.294A1.855 1.855 0 0034.147 14zm.52 6.147a.52.52 0 01-.52.52h-3.368a2.586 2.586 0 00-2.427 1.621c-.415 1-.197 2.097.57 2.863l2.38 2.38a.52.52 0 010 .736l-3.035 3.036a.52.52 0 01-.736 0l-2.38-2.382a2.587 2.587 0 00-2.863-.569 2.586 2.586 0 00-1.621 2.427v3.368a.52.52 0 01-.52.52h-4.294a.52.52 0 01-.52-.52v-3.368a2.586 2.586 0 00-1.621-2.427 2.59 2.59 0 00-2.863.569l-2.38 2.381a.52.52 0 01-.736 0l-3.036-3.035a.52.52 0 010-.736L7.08 25.15a2.586 2.586 0 00.569-2.863 2.586 2.586 0 00-2.427-1.62H1.853a.52.52 0 01-.52-.52v-4.294a.52.52 0 01.52-.52h3.368a2.586 2.586 0 002.427-1.621c.415-1 .197-2.097-.57-2.863l-2.38-2.38a.52.52 0 010-.736l3.035-3.036a.52.52 0 01.736 0l2.38 2.381a2.586 2.586 0 002.863.57 2.584 2.584 0 001.621-2.427V1.853a.52.52 0 01.52-.52h4.293a.52.52 0 01.52.52v3.368c0 1.083.622 2.013 1.622 2.427a2.585 2.585 0 002.863-.57l2.38-2.38a.52.52 0 01.736 0l3.036 3.035a.52.52 0 010 .736L28.92 10.85a2.586 2.586 0 00-.569 2.863 2.586 2.586 0 002.427 1.621h3.368a.52.52 0 01.52.52v4.293z"/><path d="M18 12c-3.309 0-6 2.691-6 6s2.691 6 6 6 6-2.691 6-6-2.691-6-6-6zm0 10.667A4.673 4.673 0 0113.333 18 4.673 4.673 0 0118 13.333 4.673 4.673 0 0122.667 18 4.673 4.673 0 0118 22.667z"/></symbol><symbol viewBox="0 0 24 24" id="geo" xmlns="http://www.w3.org/2000/svg"><path d="M12 10.4c1.544 0 2.8-1.256 2.8-2.8 0-1.544-1.256-2.8-2.8-2.8a2.803 2.803 0 00-2.8 2.8c0 1.544 1.256 2.8 2.8 2.8zm0-4.8c1.103 0 2 .897 2 2s-.897 2-2 2-2-.897-2-2 .897-2 2-2z"/><path d="M11.93 21.903l6.136-8.863c2.302-3.068 1.969-8.112-.712-10.793A7.62 7.62 0 0011.93 0a7.62 7.62 0 00-5.425 2.247c-2.68 2.68-3.014 7.724-.721 10.78l6.146 8.876zM7.07 2.813A6.827 6.827 0 0111.93.8c1.835 0 3.56.715 4.858 2.012 2.42 2.42 2.718 6.975.63 9.76l-5.488 7.925-5.497-7.937c-2.08-2.773-1.782-7.328.638-9.748z"/><path d="M16.847 17.203a.4.4 0 00-.094.794c4.207.495 6.447 1.83 6.447 2.603 0 1.086-4.26 2.6-11.2 2.6C5.06 23.2.8 21.686.8 20.6c0-.773 2.24-2.108 6.447-2.603a.4.4 0 00-.094-.794C2.942 17.699 0 19.096 0 20.6 0 22.29 4.122 24 12 24s12-1.71 12-3.4c0-1.504-2.942-2.901-7.153-3.397z"/></symbol><symbol viewBox="0 0 25 25" id="layers" xmlns="http://www.w3.org/2000/svg"><path d="M20.607 9.984L25 7.474 12.5.375 0 7.475l4.393 2.509L0 12.478l4.393 2.51L0 17.483l12.5 7.141L25 17.483l-4.393-2.495L25 12.478l-4.393-2.494zM12.5 1.422l10.662 6.054L12.5 13.568 1.838 7.476 12.5 1.422zm-7.189 9.086l7.19 4.108 7.188-4.107 3.473 1.972L12.5 18.572 1.838 12.481l3.473-1.973zm17.85 6.977l-10.66 6.091-10.663-6.091 3.473-1.972 7.19 4.107 7.188-4.107 3.473 1.972z"/></symbol><symbol viewBox="0 0 36 36" id="list" xmlns="http://www.w3.org/2000/svg"><path d="M23.348 0H3.9v36h28.2V8.752L23.348 0zm.352 2.048L30.052 8.4H23.7V2.048zM5.1 34.8V1.2h17.4v8.4h8.4v25.2H5.1z"/><path d="M25.5 12.6h-9.6a.6.6 0 100 1.2h9.6a.6.6 0 100-1.2zm-11.775-1.669l-2.58 2.065-.82-.82a.6.6 0 10-.85.848l1.2 1.2a.599.599 0 00.8.045l3-2.4a.6.6 0 00-.75-.938zM25.5 19.2h-9.6a.6.6 0 100 1.2h9.6a.6.6 0 100-1.2zm-11.775-1.669l-2.58 2.065-.82-.82a.6.6 0 10-.85.848l1.2 1.2a.599.599 0 00.8.045l3-2.4a.6.6 0 00-.75-.938zM25.5 25.8h-9.6a.6.6 0 100 1.2h9.6a.6.6 0 100-1.2zm-11.775-1.669l-2.58 2.065-.82-.82a.6.6 0 10-.85.848l1.2 1.2a.599.599 0 00.8.045l3-2.4a.6.6 0 00-.75-.938z"/></symbol><symbol viewBox="0 0 302 44" id="logo" xmlns="http://www.w3.org/2000/svg"><path d="M54.992 29V12.776h2.28v7.416l3.288-1.176c.544-.192.96-.456 1.248-.792.288-.336.504-.784.648-1.344l1.104-4.104h2.232l-1.2 4.536c-.224.848-.528 1.528-.912 2.04-.368.512-.88.896-1.536 1.152L66.536 29h-2.568l-3.888-7.704-2.808 1.056V29h-2.28zm13.627-5.112v-2.136c0-1.76.456-3.104 1.368-4.032.928-.928 2.144-1.392 3.648-1.392s2.712.464 3.624 1.392c.928.928 1.392 2.272 1.392 4.032v2.136c0 1.76-.464 3.104-1.392 4.032-.912.928-2.12 1.392-3.624 1.392s-2.72-.464-3.648-1.392c-.912-.928-1.368-2.272-1.368-4.032zm2.208-.12c0 2.4.936 3.6 2.808 3.6 1.872 0 2.808-1.2 2.808-3.6v-1.896c0-2.4-.936-3.6-2.808-3.6-1.872 0-2.808 1.2-2.808 3.6v1.896zm11.115 10.296V16.64h1.8l.288 1.056c.736-.912 1.808-1.368 3.216-1.368 1.264 0 2.328.464 3.192 1.392.864.912 1.296 2.168 1.296 3.768v2.64c0 1.68-.456 2.968-1.368 3.864-.912.88-2.04 1.32-3.384 1.32-.944 0-1.888-.288-2.832-.864v5.616h-2.208zm2.208-7.56c.976.576 1.864.864 2.664.864s1.448-.264 1.944-.792c.496-.544.744-1.4.744-2.568v-2.4c0-1.104-.248-1.936-.744-2.496-.48-.56-1.12-.84-1.92-.84-.784 0-1.432.232-1.944.696-.496.464-.744 1.152-.744 2.064v5.472zM95.02 29V16.64h9.36V29h-2.208V18.536h-4.944V29H95.02zm12.646-5.112v-2.136c0-1.76.456-3.104 1.368-4.032.928-.928 2.144-1.392 3.648-1.392s2.712.464 3.624 1.392c.928.928 1.392 2.272 1.392 4.032v2.136c0 1.76-.464 3.104-1.392 4.032-.912.928-2.12 1.392-3.624 1.392s-2.72-.464-3.648-1.392c-.912-.928-1.368-2.272-1.368-4.032zm2.208-.12c0 2.4.936 3.6 2.808 3.6 1.872 0 2.808-1.2 2.808-3.6v-1.896c0-2.4-.936-3.6-2.808-3.6-1.872 0-2.808 1.2-2.808 3.6v1.896zm11.115 10.296V16.64h1.8l.288 1.056c.736-.912 1.808-1.368 3.216-1.368 1.264 0 2.328.464 3.192 1.392.864.912 1.296 2.168 1.296 3.768v2.64c0 1.68-.456 2.968-1.368 3.864-.912.88-2.04 1.32-3.384 1.32-.944 0-1.888-.288-2.832-.864v5.616h-2.208zm2.208-7.56c.976.576 1.864.864 2.664.864s1.448-.264 1.944-.792c.496-.544.744-1.4.744-2.568v-2.4c0-1.104-.248-1.936-.744-2.496-.48-.56-1.12-.84-1.92-.84-.784 0-1.432.232-1.944.696-.496.464-.744 1.152-.744 2.064v5.472zm14.302 2.808c-1.28 0-2.304-.344-3.072-1.032-.768-.688-1.152-1.672-1.152-2.952 0-1.2.408-2.128 1.224-2.784.832-.656 1.928-.984 3.288-.984h2.4v-.648c0-.848-.208-1.496-.624-1.944-.4-.448-.984-.672-1.752-.672-.928 0-2.016.184-3.264.552L134.091 17c1.376-.448 2.616-.672 3.72-.672 1.408 0 2.52.408 3.336 1.224.832.816 1.248 1.936 1.248 3.36V29h-1.848l-.216-.816c-.72.752-1.664 1.128-2.832 1.128zm.36-1.944c.688 0 1.248-.176 1.68-.528.432-.368.648-.816.648-1.344v-2.208h-2.4c-.752 0-1.312.184-1.68.552-.368.368-.552.848-.552 1.44 0 .656.2 1.168.6 1.536.4.368.968.552 1.704.552zM147.994 29V18.536h-3.528V16.64h9.288v1.896h-3.552V29h-2.208zm7.823 0V16.64h2.208v6.432c0 .848-.024 1.6-.072 2.256l5.64-8.688h1.848V29h-2.208v-6.288c0-.64.032-1.408.096-2.304L157.713 29h-1.896zm13.312 0V16.64h4.824c1.248 0 2.224.288 2.928.864.704.576 1.056 1.36 1.056 2.352 0 1.184-.544 2.064-1.632 2.64.704.256 1.224.656 1.56 1.2a3.13 3.13 0 01.528 1.776c0 1.008-.4 1.848-1.2 2.52-.8.672-1.928 1.008-3.384 1.008h-4.68zm2.232-1.848h2.28c.8 0 1.4-.16 1.8-.48.416-.336.624-.784.624-1.344 0-.576-.192-1.032-.576-1.368-.384-.352-.968-.528-1.752-.528h-2.376v3.72zm0-5.448h2.136c.688 0 1.224-.152 1.608-.456.4-.304.6-.728.6-1.272 0-1.088-.696-1.632-2.088-1.632h-2.256v3.36zM181.552 29V16.64h2.208v4.992h5.016V16.64h2.208V29h-2.208v-5.448h-5.016V29h-2.208zm13.172 0V16.64h2.208v4.824h2.952c1.184 0 2.144.344 2.88 1.032.736.688 1.104 1.592 1.104 2.712s-.376 2.032-1.128 2.736c-.736.704-1.696 1.056-2.88 1.056h-5.136zm2.208-1.848h2.88c.592 0 1.04-.176 1.344-.528.304-.352.456-.816.456-1.392s-.152-1.04-.456-1.392c-.288-.368-.728-.552-1.32-.552h-2.904v3.864zM205.476 29V16.64h2.208V29h-2.208zm10.735-15.888c.736 0 1.176-.464 1.32-1.392l1.608.24c-.08.816-.392 1.472-.936 1.968s-1.208.744-1.992.744-1.448-.248-1.992-.744c-.528-.496-.832-1.152-.912-1.968l1.584-.24c.08.416.232.752.456 1.008s.512.384.864.384zM211.435 29V16.64h2.208v6.432c0 .848-.024 1.6-.072 2.256l5.64-8.688h1.848V29h-2.208v-6.288c0-.64.032-1.408.096-2.304L213.331 29h-1.896zm19.125 0V16.64h9.36V29h-2.208V18.536h-4.944V29h-2.208zm12.645-5.112v-2.136c0-1.76.456-3.104 1.368-4.032.928-.928 2.144-1.392 3.648-1.392s2.712.464 3.624 1.392c.928.928 1.392 2.272 1.392 4.032v2.136c0 1.76-.464 3.104-1.392 4.032-.912.928-2.12 1.392-3.624 1.392s-2.72-.464-3.648-1.392c-.912-.928-1.368-2.272-1.368-4.032zm2.208-.12c0 2.4.936 3.6 2.808 3.6 1.872 0 2.808-1.2 2.808-3.6v-1.896c0-2.4-.936-3.6-2.808-3.6-1.872 0-2.808 1.2-2.808 3.6v1.896zm11.115 10.296V16.64h1.8l.288 1.056c.736-.912 1.808-1.368 3.216-1.368 1.264 0 2.328.464 3.192 1.392.864.912 1.296 2.168 1.296 3.768v2.64c0 1.68-.456 2.968-1.368 3.864-.912.88-2.04 1.32-3.384 1.32-.944 0-1.888-.288-2.832-.864v5.616h-2.208zm2.208-7.56c.976.576 1.864.864 2.664.864s1.448-.264 1.944-.792c.496-.544.744-1.4.744-2.568v-2.4c0-1.104-.248-1.936-.744-2.496-.48-.56-1.12-.84-1.92-.84-.784 0-1.432.232-1.944.696-.496.464-.744 1.152-.744 2.064v5.472zM271.79 29V18.536h-3.528V16.64h9.288v1.896h-3.552V29h-2.208zm11.256.312c-1.28 0-2.304-.344-3.072-1.032-.768-.688-1.152-1.672-1.152-2.952 0-1.2.408-2.128 1.224-2.784.832-.656 1.928-.984 3.288-.984h2.4v-.648c0-.848-.208-1.496-.624-1.944-.4-.448-.984-.672-1.752-.672-.928 0-2.016.184-3.264.552L279.638 17c1.376-.448 2.616-.672 3.72-.672 1.408 0 2.52.408 3.336 1.224.832.816 1.248 1.936 1.248 3.36V29h-1.848l-.216-.816c-.72.752-1.664 1.128-2.832 1.128zm.36-1.944c.688 0 1.248-.176 1.68-.528.432-.368.648-.816.648-1.344v-2.208h-2.4c-.752 0-1.312.184-1.68.552-.368.368-.552.848-.552 1.44 0 .656.2 1.168.6 1.536.4.368.968.552 1.704.552zM290.18 29l1.656-8.04c.288-1.392.776-2.456 1.464-3.192.704-.752 1.696-1.128 2.976-1.128h3.672V29h-2.208V18.536h-1.272c-.672 0-1.2.224-1.584.672-.368.448-.64 1.104-.816 1.968L292.436 29h-2.256z"/><g clip-path="url(#nclip0)"><path d="M41.926 19.343c-.229-1.833-.995-3.292-1.316-3.84.233-3.812-.523-6.683-2.248-8.535A6.348 6.348 0 0034.65 5c-1.216-2.571-3.284-3.068-4.54-2.948C27.755-.139 25.58-.19 24.145.167A6.297 6.297 0 0022 1.18 6.29 6.29 0 0019.854.167c-1.434-.359-3.61-.306-5.964 1.885-1.258-.12-3.325.377-4.54 2.948a6.345 6.345 0 00-3.713 1.968C3.912 8.82 3.157 11.69 3.39 15.504c-.322.546-1.087 2.006-1.317 3.839-.259 2.076.137 5.005 3.384 7.38-.377 2.222-.02 6.045 3.527 7.925-.147.808-.245 2.21.476 3.408.567.942 1.504 1.562 2.788 1.845.649 1 2.883 4.1 5.672 4.1l.053-.001c1.495-.022 2.846-.905 4.027-2.63 1.18 1.724 2.532 2.608 4.026 2.63 2.809.04 5.072-3.092 5.725-4.099 1.284-.283 2.221-.903 2.788-1.845.721-1.198.623-2.6.476-3.408 3.548-1.88 3.904-5.703 3.528-7.924 3.247-2.376 3.643-5.305 3.383-7.381zm-4.655 6.41a.763.763 0 00-.317.819c.052.207 1.218 5.093-3.124 6.954a.762.762 0 00-.423.942c.005.017.52 1.65-.175 2.802-.376.625-1.076 1.027-2.078 1.194a.763.763 0 00-.533.367c-.597 1.018-2.569 3.644-4.542 3.644h-.034c-1.187-.018-2.318-.998-3.362-2.911a.81.81 0 00-.698-.397.762.762 0 00-.67.397c-1.043 1.913-2.175 2.893-3.362 2.91-1.975.033-3.976-2.619-4.575-3.642a.764.764 0 00-.534-.368c-.999-.167-1.697-.567-2.074-1.188-.703-1.159-.183-2.794-.178-2.808a.763.763 0 00-.423-.942c-4.32-1.851-3.174-6.748-3.124-6.954a.763.763 0 00-.317-.82c-5.69-3.793-2.082-9.398-1.926-9.633a.764.764 0 00.126-.478c-.249-3.477.358-6.037 1.803-7.61C8.121 6.52 9.803 6.481 9.87 6.48c.312 0 .592-.19.708-.48.854-2.133 2.225-2.438 2.938-2.438.23 0 .392.032.445.045a.763.763 0 00.724-.201c1.552-1.552 3.148-2.148 4.742-1.773a4.712 4.712 0 012.02 1.06.763.763 0 00.539.224h.03c.201 0 .395-.08.538-.223.008-.008.775-.75 1.962-1.047 1.614-.403 3.229.188 4.8 1.759.185.186.46.26.717.202.228-.052 2.262-.428 3.39 2.393a.77.77 0 00.703.479c.071.001 1.753.04 3.143 1.551 1.445 1.573 2.051 4.133 1.803 7.61a.765.765 0 00.127.478c.01.015.972 1.477 1.214 3.413.316 2.527-.741 4.62-3.141 6.22z"/><path d="M34.826 5.476a.764.764 0 00-.965-.482c-4.744 1.58-4.798 5.545-4.798 5.713a.76.76 0 00.757.76h.005a.765.765 0 00.763-.755c.002-.124.084-3.048 3.755-4.271a.763.763 0 00.483-.965zm3.446 20.448a.763.763 0 00-1.07-.144c-1.242.947-2.366 1.284-3.338 1.004-1.731-.498-2.603-2.778-2.611-2.802a.762.762 0 00-1.43.53c.045.123 1.14 3.017 3.61 3.735a3.98 3.98 0 001.126.161c1.137 0 2.333-.473 3.568-1.415a.763.763 0 00.145-1.07zm-12.896.636a.762.762 0 10-1.079 1.078c2.477 2.477 1.963 4.87 1.937 4.983a.763.763 0 001.48.365c.034-.133.782-3.306-2.338-6.426zm11.834-7.148a.764.764 0 00-.977-.457c-.154.055-3.791 1.327-5.722-1.244-1.004-1.335-1.435-2.478-1.781-3.397-.426-1.127-.827-2.192-2.16-2.302a.763.763 0 10-.125 1.52c.319.026.439.211.857 1.32.361.956.855 2.265 1.989 3.775 1.329 1.769 3.183 2.213 4.712 2.213 1.48 0 2.655-.417 2.752-.452a.762.762 0 00.454-.976zM21.985 1.391a.763.763 0 00-.762.763v37.774a.763.763 0 001.525 0V2.154a.763.763 0 00-.763-.763z"/><path d="M27.562 7.962a.752.752 0 00-.774-.752.763.763 0 00-.751.774c0 .048.042 4.803-2.336 7.82a.762.762 0 101.197.944c2.71-3.436 2.667-8.569 2.664-8.786zm1.551 23.363c-3.362 0-4.935 4.602-5 4.799a.762.762 0 001.447.482c.351-1.044 1.675-3.755 3.553-3.755a.763.763 0 000-1.526zm.859-29.391a.763.763 0 00-1.067.156l-1.83 2.46a.763.763 0 001.224.91L30.129 3a.763.763 0 00-.157-1.066zM14.357 6.863a3.054 3.054 0 00-3.05 3.051 3.054 3.054 0 003.05 3.051 3.054 3.054 0 003.051-3.05 3.054 3.054 0 00-3.05-3.052zm0 4.577a1.527 1.527 0 01-1.525-1.526 1.527 1.527 0 013.051 0c0 .841-.685 1.526-1.526 1.526zm-5.339 5.339a3.054 3.054 0 00-3.05 3.05 3.054 3.054 0 003.05 3.051 3.054 3.054 0 003.05-3.05 3.054 3.054 0 00-3.05-3.051zm0 4.576a1.527 1.527 0 01-1.526-1.525c0-.842.685-1.526 1.526-1.526s1.525.684 1.525 1.526c0 .84-.684 1.525-1.525 1.525zm7.627 2.288a3.054 3.054 0 00-3.05 3.051 3.054 3.054 0 003.05 3.051 3.054 3.054 0 003.051-3.05 3.054 3.054 0 00-3.05-3.052zm0 4.577a1.527 1.527 0 01-1.525-1.526 1.527 1.527 0 013.051 0c0 .841-.685 1.526-1.526 1.526zm0 3.813a3.054 3.054 0 00-3.05 3.051 3.054 3.054 0 003.05 3.051 3.054 3.054 0 003.051-3.05 3.054 3.054 0 00-3.05-3.052zm0 4.577a1.527 1.527 0 01-1.525-1.526 1.527 1.527 0 013.051 0c0 .841-.685 1.526-1.526 1.526z"/><path d="M14.357 11.44a.763.763 0 00-.762.762v7.628a.763.763 0 001.525 0v-7.628a.763.763 0 00-.763-.762z"/><path d="M16.645 19.067h-5.339a.763.763 0 000 1.525h5.34a.763.763 0 000-1.525z"/><path d="M16.645 19.067a.763.763 0 00-.762.763v4.576a.763.763 0 001.525 0V19.83a.763.763 0 00-.763-.763zm0 9.153a.763.763 0 00-.762.762v3.814a.763.763 0 001.525 0v-3.814a.763.763 0 00-.763-.762z"/></g><defs><clipPath id="nclip0"><path d="M0 0h44v44H0z"/></clipPath></defs></symbol><symbol viewBox="0 0 12 12" id="pencil" xmlns="http://www.w3.org/2000/svg"><g clip-path="url(#oclip0)"><path d="M11.634 1.447L10.548.36c-.471-.471-1.294-.472-1.768 0L1.073 8.068a.242.242 0 00-.063.108l-1 3.5a.249.249 0 00.31.31l3.499-1a.25.25 0 00.108-.064l7.707-7.707c.236-.236.366-.55.366-.884 0-.334-.13-.648-.366-.884zM11.28 2.86l-7.66 7.661-3.006.859.859-3.005 7.66-7.66a.768.768 0 011.061 0L11.28 1.8a.751.751 0 010 1.061z"/><path d="M11.634 1.446L10.548.36c-.47-.471-1.294-.472-1.767 0L1.074 8.067a.25.25 0 00.353.354L9.134.714a.768.768 0 011.06 0l1.086 1.085a.751.751 0 010 1.061l-7.707 7.707a.25.25 0 00.354.354l7.707-7.707a1.251 1.251 0 000-1.768z"/><path d="M3.927 10.567l-2.5-2.5a.25.25 0 00-.354.354l2.5 2.5a.251.251 0 00.354 0 .25.25 0 000-.354zm6.5-8.999a.25.25 0 00-.354 0l-7 7a.25.25 0 00.354.353l7-7a.25.25 0 000-.353z"/></g><defs><clipPath id="oclip0"><path d="M0 0h12v12H0z"/></clipPath></defs></symbol><symbol viewBox="0 0 36 36" id="time" xmlns="http://www.w3.org/2000/svg"><path d="M18.98 22.793a2.135 2.135 0 001.564-.875l5.618-7.766a.6.6 0 00-.838-.839l-7.768 5.62a2.136 2.136 0 001.424 3.86zm-1.1-2.203a.936.936 0 01.382-.685L23 16.477l-3.426 4.737a.939.939 0 01-1.694-.624z"/><path d="M32.42 11.738c-.006-.012-.006-.025-.012-.038-.007-.012-.019-.019-.027-.03a16.311 16.311 0 00-2.139-2.885l1.29-1.289.848.849 2.545-2.546-2.545-2.545-2.546 2.545.849.849-1.289 1.288a16.292 16.292 0 00-2.885-2.14c-.012-.007-.018-.019-.03-.026-.013-.007-.026-.006-.039-.013a16.086 16.086 0 00-6.164-2.042V3h.9a1.501 1.501 0 000-3h-5.4a1.501 1.501 0 000 3h.9v.694c-.648.069-1.295.174-1.935.32a.6.6 0 10.269 1.17 15.1 15.1 0 011.668-.286l.643-.05c.197-.015.378-.026.555-.034V6a.6.6 0 101.2 0V4.818c2.256.104 4.383.71 6.273 1.707l-.591 1.024a.6.6 0 001.039.6l.59-1.022a15.116 15.116 0 014.663 4.664l-1.022.59a.6.6 0 00.601 1.039l1.025-.592a14.892 14.892 0 011.709 6.371h-1.185a.6.6 0 100 1.2h1.185a14.892 14.892 0 01-1.71 6.372l-1.024-.592a.6.6 0 10-.6 1.04l1.022.59a15.116 15.116 0 01-4.663 4.662l-.59-1.021a.6.6 0 10-1.039.6l.592 1.024a14.883 14.883 0 01-6.274 1.707V33.6a.6.6 0 10-1.2 0v1.186a15.14 15.14 0 01-2.866-.37.6.6 0 10-.268 1.17c1.198.275 2.421.414 3.635.414l.087-.002.01.002c.006 0 .01-.003.015-.003 2.884-.02 5.59-.799 7.931-2.144.019-.008.038-.012.056-.023.012-.007.019-.019.03-.027a16.318 16.318 0 005.864-5.856c.012-.016.026-.029.036-.047.007-.013.007-.026.013-.038a16.085 16.085 0 002.158-8.062 16.09 16.09 0 00-2.158-8.062zm-.041-6.787l.848.848-.848.849-.849-.849.849-.848zM17.876 3.613V1.8h-2.1a.3.3 0 01-.3-.3.3.3 0 01.3-.3h5.4a.3.3 0 01.3.3.3.3 0 01-.3.3h-2.1v1.813a14.917 14.917 0 00-.6-.013l-.053.001-.045-.001c-.098 0-.197.007-.295.008-.07.002-.135.002-.207.005zm-4.8 4.787h-3a.6.6 0 100 1.2h3a.6.6 0 100-1.2zm0 4.2h-6a.6.6 0 100 1.2h6a.6.6 0 100-1.2zm0 4.2h-9a.6.6 0 100 1.2h9a.6.6 0 100-1.2zm0 4.2h-11.4a.6.6 0 100 1.2h11.4a.6.6 0 100-1.2zm0 4.2h-7.8a.6.6 0 100 1.2h7.8a.6.6 0 100-1.2zm0 4.2h-4.2a.6.6 0 100 1.2h4.2a.6.6 0 100-1.2z"/></symbol></svg>